<svg xmlns="http://www.w3.org/2000/svg" width="15.785" height="6.765" viewBox="0 0 15.785 6.765">
  <path id="Path_2278" data-name="Path 2278" d="M14.275,395.129a1.974,1.974,0,0,0-1.59-3.142H3.1a1.972,1.972,0,0,0-1.589,3.141A2.821,2.821,0,0,0,0,397.625v.564a.564.564,0,0,0,.564.564H15.221a.564.564,0,0,0,.564-.564v-.564A2.821,2.821,0,0,0,14.275,395.129ZM2.5,393.362a.84.84,0,0,1,.6-.248h9.584a.846.846,0,1,1,0,1.691H3.1a.846.846,0,0,1-.6-1.444Zm-1.375,4.263a1.693,1.693,0,0,1,1.691-1.691H12.966a1.693,1.693,0,0,1,1.691,1.691Z" transform="translate(0 -391.987)" fill="#dd272d"/>
</svg>
